<?xml version="1.0" ?><!DOCTYPE svg  PUBLIC '-//W3C//DTD SVG 1.1//EN'  'http://www.w3.org/Graphics/SVG/1.1/DTD/svg11.dtd'><svg enable-background="new 0 0 32 32" version="1.1" viewBox="0 0 32 32" xml:space="preserve" xmlns="http://www.w3.org/2000/svg" xmlns:xlink="http://www.w3.org/1999/xlink"><g id="Security02"/><g id="Security03"/><g id="Security04"/><g id="Security05"/><g id="Security06"/><g id="Security07"/><g id="Security08"/><g id="Security09"/><g id="Security10"/><g id="Security11"><g><path d="M23,6v20c0,2.76-2.24,5-5,5h-4c-2.76,0-5-2.24-5-5V6c0-2.76,2.24-5,5-5h4C20.76,1,23,3.24,23,6z" fill="#2197F3"/></g><path d="M19,20c0,1.3-0.84,2.4-2,2.82V26c0,0.55-0.45,1-1,1s-1-0.45-1-1v-3.18c-1.16-0.42-2-1.52-2-2.82   c0-1.65,1.35-3,3-3S19,18.35,19,20z" fill="#FFFFFF"/><g><path d="M27.12,20.12C26.55,20.69,25.8,21,25,21s-1.55-0.31-2.12-0.88l-8.49-8.48c-1.17-1.17-1.17-3.08,0-4.25    c1.14-1.13,3.11-1.13,4.25,0l8.48,8.49C28.29,17.05,28.29,18.95,27.12,20.12z" fill="#3F51B5"/></g></g><g id="Security12"/><g id="Security13"/><g id="Security14"/><g id="Security15"/><g id="Security16"/><g id="Security17"/><g id="Security18"/><g id="Security19"/><g id="Security20"/><g id="Security21"/></svg>